<?xml version="1.0" encoding="UTF-8" standalone="no"?>
<!DOCTYPE svg PUBLIC "-//W3C//DTD SVG 1.1//EN" "http://www.w3.org/Graphics/SVG/1.1/DTD/svg11.dtd">
<svg width="100%" height="100%" viewBox="0 0 456 456" version="1.1" xmlns="http://www.w3.org/2000/svg" xmlns:xlink="http://www.w3.org/1999/xlink" xml:space="preserve" xmlns:serif="http://www.serif.com/" style="fill-rule:evenodd;clip-rule:evenodd;stroke-miterlimit:1.5;">
    <g transform="matrix(1,0,0,1,-8802,-6027)">
        <g transform="matrix(2.44364,0,0,5.23747,-273.57,0)">
            <g transform="matrix(1,0,0,1,-278.448,201.858)">
                <g transform="matrix(0.319477,0,0,0.413458,1124.78,556.06)">
                    <rect x="8977.06" y="950.316" width="582.819" height="210.116" style="fill:rgb(37,57,117);"/>
                </g>
                <g transform="matrix(1.17439,0,0,1.14493,-707.222,-142.768)">
                    <g>
                        <g transform="matrix(0.130104,0,0,0.190932,2824.14,490.229)">
                            <path d="M9094.91,2623.05L10230.8,2623.05" style="fill:none;stroke:rgb(119,143,212);stroke-width:4.89px;"/>
                        </g>
                        <g transform="matrix(0.130104,0,0,0.190932,2824.14,497.443)">
                            <path d="M9094.91,2623.05L10230.8,2623.05" style="fill:none;stroke:rgb(119,143,212);stroke-width:4.89px;"/>
                        </g>
                        <g transform="matrix(0.130104,0,0,0.190932,2824.14,504.903)">
                            <path d="M9094.91,2623.05L10230.8,2623.05" style="fill:none;stroke:rgb(119,143,212);stroke-width:4.89px;"/>
                        </g>
                        <g transform="matrix(0.130104,0,0,0.190932,2824.14,509.676)">
                            <path d="M9094.91,2623.05L10230.8,2623.05" style="fill:none;stroke:rgb(119,143,212);stroke-width:4.89px;"/>
                        </g>
                        <g transform="matrix(0.130104,0,0,0.190932,2824.14,519.466)">
                            <path d="M9094.91,2623.05L10230.8,2623.05" style="fill:none;stroke:rgb(119,143,212);stroke-width:4.89px;"/>
                        </g>
                        <g transform="matrix(0.130104,0,0,0.190932,2824.14,461.78)">
                            <path d="M9094.91,2623.05L10230.8,2623.05" style="fill:none;stroke:rgb(119,143,212);stroke-width:4.89px;"/>
                        </g>
                        <g transform="matrix(8.65802e-18,0.0638506,-0.141396,3.90972e-18,4392.29,374.506)">
                            <path d="M9094.91,2623.05L10230.8,2623.05" style="fill:none;stroke:rgb(119,143,212);stroke-width:10.56px;"/>
                        </g>
                        <g transform="matrix(8.65802e-18,0.0638506,-0.141396,3.90972e-18,4460.91,374.506)">
                            <path d="M9094.91,2623.05L10230.8,2623.05" style="fill:none;stroke:rgb(119,143,212);stroke-width:10.56px;"/>
                        </g>
                        <g transform="matrix(8.65802e-18,0.0638506,-0.141396,3.90972e-18,4505.46,374.506)">
                            <path d="M9094.91,2623.05L10230.8,2623.05" style="fill:none;stroke:rgb(119,143,212);stroke-width:10.56px;"/>
                        </g>
                        <g transform="matrix(0.704955,0,0,0.32891,-4127.5,92.1481)">
                            <path d="M11644.8,2675.17C11671.4,2675.17 11693.1,2696.84 11693.1,2723.53C11693.1,2750.22 11671.4,2771.89 11644.8,2771.89C11618.1,2771.89 11596.4,2750.22 11596.4,2723.53C11596.4,2696.84 11618.1,2675.17 11644.8,2675.17ZM11644.8,2677.28C11670.3,2677.28 11691.1,2697.99 11691.1,2723.53C11691.1,2749.07 11670.3,2769.78 11644.8,2769.78C11619.2,2769.78 11598.4,2749.07 11598.4,2723.53C11598.4,2697.99 11619.2,2677.28 11644.8,2677.28Z" style="fill:rgb(119,143,212);"/>
                        </g>
                        <g transform="matrix(0.765831,0,0,0.360139,-4834.92,12.4412)">
                            <path d="M11644.8,2675.17C11671.4,2675.17 11693.1,2696.84 11693.1,2723.53C11693.1,2750.22 11671.4,2771.89 11644.8,2771.89C11618.1,2771.89 11596.4,2750.22 11596.4,2723.53C11596.4,2696.84 11618.1,2675.17 11644.8,2675.17ZM11644.8,2677.1C11670.4,2677.1 11691.2,2697.89 11691.2,2723.53C11691.2,2749.17 11670.4,2769.97 11644.8,2769.97C11619.1,2769.97 11598.3,2749.17 11598.3,2723.53C11598.3,2697.89 11619.1,2677.1 11644.8,2677.1Z" style="fill:rgb(119,143,212);"/>
                        </g>
                        <g transform="matrix(0.29034,0,0,0.135464,746.3,615.171)">
                            <path d="M11644.8,2675.17C11671.4,2675.17 11693.1,2696.84 11693.1,2723.53C11693.1,2750.22 11671.4,2771.89 11644.8,2771.89C11618.1,2771.89 11596.4,2750.22 11596.4,2723.53C11596.4,2696.84 11618.1,2675.17 11644.8,2675.17ZM11644.8,2680.3C11668.6,2680.3 11688.1,2699.63 11688.1,2723.53C11688.1,2747.43 11668.6,2766.77 11644.8,2766.77C11620.9,2766.77 11601.4,2747.43 11601.4,2723.53C11601.4,2699.63 11620.9,2680.3 11644.8,2680.3Z" style="fill:rgb(119,143,212);"/>
                        </g>
                    </g>
                    <g>
                        <g transform="matrix(0.409225,0,0,0.190932,129.175,370.083)">
                            <path d="M9679.2,3353.12C9702.41,3348.73 9724.84,3335.57 9740.25,3311.39L9740.25,3292.7L9679.42,3292.7L9679.42,3250.04L9788.74,3250.04L9788.74,3404.22L9740.25,3404.22L9740.25,3370.43C9722.14,3388.41 9701.79,3399.64 9679.2,3404.11L9679.2,3353.12ZM9679.2,3103.18C9699.43,3105.31 9717.3,3110.9 9732.8,3119.94C9753.08,3131.77 9768.32,3147.68 9778.53,3167.68L9734.72,3199.78C9727.06,3184.85 9716.35,3173.45 9702.6,3165.56C9695.15,3161.29 9687.35,3158.18 9679.2,3156.22L9679.2,3103.18Z" style="fill:white;fill-rule:nonzero;stroke:white;stroke-width:0.86px;stroke-linejoin:round;stroke-miterlimit:2;"/>
                        </g>
                        <g transform="matrix(0.409225,0,0,0.190932,-25.3817,370.083)">
                            <path d="M10057.9,3404.08C10050.3,3405.58 10042.6,3406.33 10034.5,3406.33C10014.7,3406.33 9996.03,3402.39 9978.6,3394.5C9961.16,3386.62 9945.99,3375.78 9933.08,3361.98C9920.18,3348.18 9909.97,3331.92 9902.46,3313.19C9894.94,3294.47 9891.19,3274.26 9891.19,3252.58C9891.19,3232.02 9894.94,3212.66 9902.46,3194.5C9909.97,3176.33 9920.32,3160.42 9933.51,3146.77C9946.69,3133.11 9962.22,3122.27 9980.09,3114.24C9997.95,3106.22 10017.4,3102.2 10038.4,3102.2C10045.1,3102.2 10051.6,3102.54 10057.9,3103.2L10057.9,3156.26C10050.9,3154.58 10043.7,3153.74 10036.2,3153.74C10023.5,3153.74 10011.8,3156.41 10001.1,3161.76C9990.51,3167.11 9981.43,3174.43 9973.92,3183.73C9966.4,3193.02 9960.59,3203.72 9956.48,3215.83C9952.37,3227.94 9950.31,3240.75 9950.31,3254.27C9950.31,3268.35 9952.58,3281.51 9957.11,3293.76C9961.65,3306.01 9967.89,3316.64 9975.83,3325.65C9983.77,3334.66 9993.2,3341.77 10004.1,3346.98C10015,3352.19 10026.9,3354.8 10039.6,3354.8C10045.7,3354.8 10051.8,3354.24 10057.9,3353.08L10057.9,3404.08ZM10040.1,3387.99C10038.3,3388.09 10036.4,3388.14 10034.5,3388.14C10017.2,3388.14 10001,3384.73 9985.75,3377.85C9970.48,3370.95 9957.18,3361.47 9945.89,3349.38C9934.49,3337.19 9925.5,3322.81 9918.86,3306.27C9912.21,3289.68 9908.93,3271.78 9908.93,3252.58C9908.93,3234.54 9912.19,3217.54 9918.79,3201.61C9925.4,3185.61 9934.5,3171.6 9946.11,3159.57C9957.74,3147.53 9971.45,3137.99 9987.2,3130.91C10002.9,3123.87 10019.9,3120.4 10038.4,3120.4C10039,3120.4 10039.5,3120.4 10040.1,3120.41C10040.1,3120.41 10040.1,3135.61 10040.1,3135.61C10038.8,3135.56 10037.5,3135.54 10036.2,3135.54C10020.6,3135.54 10006.3,3138.88 9993.33,3145.43C9980.41,3151.92 9969.39,3160.82 9960.26,3172.11C9951.43,3183.04 9944.56,3195.6 9939.73,3209.84C9934.97,3223.84 9932.57,3238.64 9932.57,3254.27C9932.57,3270.65 9935.25,3285.97 9940.53,3300.22C9945.89,3314.69 9953.3,3327.21 9962.67,3337.85C9972.21,3348.68 9983.52,3357.22 9996.63,3363.48C10009.9,3369.79 10024.2,3372.99 10039.6,3372.99C10039.8,3372.99 10040,3372.99 10040.1,3372.99L10040.1,3387.99Z" style="fill:white;"/>
                        </g>
                    </g>
                </g>
            </g>
        </g>
    </g>
</svg>
