<?xml version="1.0" encoding="UTF-8" standalone="no"?>
<!DOCTYPE svg PUBLIC "-//W3C//DTD SVG 1.1//EN" "http://www.w3.org/Graphics/SVG/1.1/DTD/svg11.dtd">
<svg width="100%" height="100%" viewBox="0 0 498 341" version="1.1" xmlns="http://www.w3.org/2000/svg" xmlns:xlink="http://www.w3.org/1999/xlink" xml:space="preserve" xmlns:serif="http://www.serif.com/" style="fill-rule:evenodd;clip-rule:evenodd;stroke-linejoin:round;stroke-miterlimit:2;">
    <g transform="matrix(1,0,0,1,-3833,-738)">
        <g transform="matrix(2.38461,0,0,1.82578,-6329.29,227)">
            <g transform="matrix(6.4225e-16,-13.6991,10.4887,8.38828e-16,4240.72,485.855)">
                <path d="M11.76,11.623L11.76,21.365C11.76,21.638 12.091,21.874 12.331,21.874C12.446,21.874 12.911,21.874 13.054,21.874C13.325,21.874 13.701,21.548 13.701,21.364L13.701,7.689C14.55,7.016 15,6.302 15,5C15,3.346 13.654,2 12,2C10.346,2 9,3.346 9,5C9,6.302 9.692,7.275 10.853,7.689L10.853,9.207C10.853,10.034 8.092,10.707 7.712,10.707C7.411,10.707 3.411,11.487 3.411,14.207L3.411,16.058C2.25,16.473 1.411,17.572 1.411,18.874C1.411,20.528 2.757,21.874 4.411,21.874C6.065,21.874 7.411,20.528 7.411,18.874C7.411,17.572 6.572,16.473 5.411,16.058L5.411,14.207C5.411,13.714 7.25,12.759 7.712,12.759C8.366,12.759 10.103,12.209 11.76,11.623ZM4.411,19.874C3.859,19.874 3.411,19.425 3.411,18.874C3.411,18.323 3.859,17.874 4.411,17.874C4.963,17.874 5.411,18.323 5.411,18.874C5.411,19.425 4.963,19.874 4.411,19.874ZM12,4C12.552,4 13,4.449 13,5C13,5.551 12.552,6 12,6C11.448,6 11,5.551 11,5C11,4.449 11.448,4 12,4Z" style="fill-rule:nonzero;"/>
            </g>
        </g>
    </g>
</svg>
