<?xml version="1.0" encoding="UTF-8" standalone="no"?>
<!DOCTYPE svg PUBLIC "-//W3C//DTD SVG 1.1//EN" "http://www.w3.org/Graphics/SVG/1.1/DTD/svg11.dtd">
<svg width="100%" height="100%" viewBox="0 0 301 128" version="1.1" xmlns="http://www.w3.org/2000/svg" xmlns:xlink="http://www.w3.org/1999/xlink" xml:space="preserve" xmlns:serif="http://www.serif.com/" style="fill-rule:evenodd;clip-rule:evenodd;stroke-linejoin:round;stroke-miterlimit:2;">
    <g transform="matrix(1,0,0,1,-8247,-5018)">
        <g transform="matrix(0.622121,0,0,0.417008,8066.43,2758.66)">
            <g id="nyu" transform="matrix(1.18933,0,0,1.77432,-2420.02,3051.6)">
                <g id="Fill-1" transform="matrix(0.675152,0,0,0.675152,2261.75,1200.32)">
                    <path d="M246.2,250.7C246.3,250.6 246.3,250.5 246.2,250.4C246,250.1 245.6,249.6 244.7,248.3C243.6,246.7 236.8,237.3 228,229.3C219.2,221.3 192.4,198.6 149.9,198.6C105.6,198.6 75.6,222.8 60.1,240C45,256.9 37.4,275.5 37.2,276C37,276.5 36.9,276.6 37.1,276.7C37.3,276.8 37.4,276.5 37.7,275.9C38,275.4 45.9,258.1 63,244.1C80.1,230 108.7,213.9 150.3,213.9C185.8,213.9 211.4,226.5 223.2,233.6C234.9,240.6 242.4,247.6 244,249.1C244.9,250 245.4,250.4 245.7,250.6C246,250.8 246.1,250.8 246.2,250.7" style="fill:white;fill-rule:nonzero;"/>
                </g>
                <g id="Fill-3" transform="matrix(0.675152,0,0,0.675152,2261.75,1200.32)">
                    <path d="M27.1,317.2C27.2,317.2 27.3,317.2 27.3,317.3C27.4,317.5 27.3,317.9 27.3,318.9C27.3,319.6 26.4,340.3 37,362.1C47.8,384.5 67,408 97.7,423.4C126.9,438 155.3,440.1 176.6,437.8C197.1,435.5 212.9,427.8 214.7,427.1C215.4,426.8 215.5,426.6 215.6,426.8L215.6,426.9C215.5,427 215.3,427.2 214.9,427.6C214.3,428.1 213.4,428.9 212.1,429.8C209.7,431.6 204.9,436 188.8,442.8C165.7,452.6 127,458.8 88.4,437.8C51.3,417.7 34.7,383 29.1,356.5C24.9,336.5 26.7,319.7 26.7,318.4C26.7,317.9 26.7,317.6 26.8,317.5C26.9,317.3 27,317.2 27.1,317.2" style="fill:white;fill-rule:nonzero;"/>
                </g>
                <g id="Fill-4" transform="matrix(0.675152,0,0,0.675152,2261.75,1200.32)">
                    <path d="M436.7,355.1L437.7,355.1L445.6,355.8C455.4,356.5 455.8,357.9 455.8,360.3C455.8,363.4 451.6,365.4 445.2,365.4C436.2,365.4 434.3,363.2 434.3,359.9C434.4,358.1 435.2,356.5 436.7,355.1ZM444.8,311.5C450,311.5 451.1,316.2 451.1,320.1C451.1,325.6 448.8,328.8 444.8,328.8C439.4,328.8 438.5,323.3 438.5,320.1C438.6,316.9 439.4,311.5 444.8,311.5ZM420.3,362.3C420.3,370.9 427.3,374.2 443.2,374.2C459.8,374.2 470.5,368.1 470.5,357.9C470.5,347.8 464.3,343.8 448.3,342.8L441.5,342.5C437.6,342.1 437.4,341.2 437.4,340.3C437.4,340 437.5,339.4 438.3,338.7C440.3,339.2 442.5,339.4 444.8,339.4C457.9,339.4 466,331.8 466,319.7C466,317.8 465.7,315.9 465.1,313.9C467.8,313.4 470.1,313.4 471.3,313.4L472.1,313.4L472.1,299.7L471.2,299.8C467.4,300.2 462.8,302.2 459.8,304.8C456.2,301.6 451,299.9 444.8,299.9C431.7,299.9 423.2,307.7 423.2,319.7C423.2,326 425.7,331.4 430.2,335C426.5,337.7 424.1,341.5 424.1,345C424.1,347.7 425.3,350 427.5,351.7C422.6,354.5 420.3,358 420.3,362.3ZM269.7,406L246.3,406L246.3,378.1L229.7,378.1L229.7,451.4L246.3,451.4L246.3,420L269.7,420L269.7,451.4L286.3,451.4L286.3,378.1L269.7,378.1L269.7,406ZM398.7,451.4L414.9,451.4L414.9,383.4L398.7,385.6L398.7,451.4ZM373,435.5C370.3,437.9 367.5,439.2 364.6,439.2C362,439.2 360.5,437.6 360.5,434.8C360.5,431.7 361.9,427.9 373,425.3L373,435.5ZM388.7,437.8L388.7,414.5C388.7,402.1 383.2,396.3 371.3,396.3C361.9,396.3 353.5,399.3 347,405L346.4,405.5L353.9,415.4L354.5,414.9C357.3,412.8 362.9,409.4 368.5,409.4C371.7,409.4 373,410.9 373,414.6L373,416.1C354,419.7 344.8,426.7 344.8,437.6C344.8,446.8 349.8,452.1 358.4,452.1C364.3,452.1 369.1,450 373.1,445.8C373.3,448.1 373.7,449.7 374,451L374.2,451.6L390.3,451.6L389.9,450.5C389,447.9 388.7,444.4 388.7,437.8ZM344,339.3C341.4,341.7 338.5,343 335.6,343C333,343 331.5,341.4 331.5,338.6C331.5,335.5 333,331.7 344,329.1L344,339.3ZM345.2,355.1L361.3,355.1L361,354C360.1,351.6 359.8,348.1 359.8,341.5L359.8,318.2C359.8,305.8 354.3,300 342.4,300C333,300 324.6,303 318.1,308.7L317.5,309.2L325,319.1L325.7,318.6C328.5,316.5 334.1,313.1 339.7,313.1C342.9,313.1 344.2,314.6 344.2,318.3L344.2,319.8C325.2,323.4 316,330.4 316,341.3C316,350.5 321,355.8 329.6,355.8C335.5,355.8 340.3,353.7 344.3,349.5C344.5,351.8 344.9,353.4 345.2,354.7L345.2,355.1ZM401.4,299.9C395,299.9 389.8,303.3 386.6,306.8L386.6,301L370.4,301L370.4,355.1L386.6,355.1L386.6,318.1C389.7,315.3 392.5,313.8 394.9,313.8C396.9,313.8 398.8,314.4 398.8,319.1L398.8,355L414.9,355L414.9,314.4C414.9,305 410.2,299.9 401.4,299.9ZM444.6,379.4L428.5,381.5L428.5,397.2L421,397.2L421,409.6L428.5,409.6L428.5,437.4C428.5,448.1 432.9,451.9 445.3,451.9C448.6,451.9 453.4,451.5 454.6,451.2L455.2,451L455.2,438.7L454.1,439.2C453.6,439.4 451.5,439.7 450.1,439.7C445.7,439.7 444.7,438.6 444.7,433.7L444.7,409.5L455.9,409.5L455.9,397.1L444.7,397.1L444.7,379.4L444.6,379.4ZM560.4,299.9C554,299.9 548.8,303.3 545.6,306.8L545.6,301L529.4,301L529.4,355.1L545.6,355.1L545.6,318.1C548.7,315.3 551.5,313.8 553.9,313.8C555.9,313.8 557.8,314.4 557.8,319.1L557.8,355L573.9,355L573.9,314.4C573.9,305 569.2,299.9 560.4,299.9ZM604.4,312.7C605.9,312.7 610.5,312.7 611.4,322.6L597,322.6C597.8,316.2 600.4,312.7 604.4,312.7ZM616.5,336.5L616,337.3C614.1,340.4 610.2,343.7 605.4,343.7C600.2,343.7 597.4,340 596.8,332.4L626.2,332.4L626.2,329C626.2,310.5 618.2,300 604.3,300C593.5,300 580.9,307.4 580.9,328.2C580.9,345.8 589.8,356.3 604.7,356.3C613.8,356.3 620.7,352.6 625.8,345.1L626.2,344.5L616.5,336.5ZM494,396.2C487.6,396.2 482.4,399.6 479.2,403.1L479.2,374.8L463,377L463,451.4L479.2,451.4L479.2,414.5C482.3,411.7 485.1,410.2 487.5,410.2C489.5,410.2 491.4,410.8 491.4,415.5L491.4,451.4L507.5,451.4L507.5,410.8C507.5,401.3 502.9,396.2 494,396.2ZM497.8,343.4C494.5,343.4 490.1,341.8 490.1,328.1C490.1,317.7 492.5,313.1 497.8,313.1C501.1,313.1 505.5,314.7 505.5,328.1C505.5,338.7 503.2,343.4 497.8,343.4ZM497.8,299.9C491.1,299.9 485.3,302.2 481.2,306.4C476.4,311.4 473.9,318.6 473.9,328C473.9,348.7 486.3,356.1 497.8,356.1C509.4,356.1 521.7,348.7 521.7,328C521.7,318.6 519.2,311.3 514.4,306.4C510.2,302.2 504.5,299.9 497.8,299.9ZM317.5,409C319,409 323.6,409 324.5,418.9L310.2,418.9C310.9,412.5 313.5,409 317.5,409ZM329.2,433.6C327.3,436.7 323.4,440 318.6,440C313.4,440 310.6,436.3 310,428.8L339.4,428.8L339.4,425.3C339.4,406.8 331.4,396.3 317.5,396.3C306.7,396.3 294.1,403.7 294.1,424.5C294.1,442.1 303,452.6 317.9,452.6C327,452.6 333.9,448.9 339,441.4L339.4,440.8L329.6,433L329.2,433.6ZM246.3,329L246.3,280.7L230.4,280.7L230.4,328.3C230.4,338.1 227.6,342 220.9,342C214.1,342 211.4,338.1 211.4,328.2L211.4,280.7L194.8,280.7L194.8,329.1C194.8,347.1 203.5,356.3 220.7,356.3C238,356.3 246.3,347.3 246.3,329ZM111.4,323.4C106.1,312.9 89.6,282.5 88.8,281.1L88.6,280.7L71.9,280.7L71.9,355.1L87.1,355.1L87.1,311.2C92.5,321.5 110.4,353.2 111.3,354.7L111.5,355.1L126.7,355.1L126.7,280.7L111.5,280.7L111.5,323.4L111.4,323.4ZM309,341.2L286.6,341.2L286.6,280.7L270,280.7L270,355.1L309,355.1L309,341.2ZM169.3,355.1L169.3,325.8L190.3,280.6L173.9,280.6L161.4,310.2L148.9,280.6L131.8,280.6L152.7,325.9L152.7,355.1L169.3,355.1Z" style="fill:white;fill-rule:nonzero;"/>
                </g>
            </g>
        </g>
    </g>
</svg>
