<?xml version="1.0" encoding="UTF-8" standalone="no"?>
<!DOCTYPE svg PUBLIC "-//W3C//DTD SVG 1.1//EN" "http://www.w3.org/Graphics/SVG/1.1/DTD/svg11.dtd">
<svg width="100%" height="100%" viewBox="0 0 621 115" version="1.1" xmlns="http://www.w3.org/2000/svg" xmlns:xlink="http://www.w3.org/1999/xlink" xml:space="preserve" xmlns:serif="http://www.serif.com/" style="fill-rule:evenodd;clip-rule:evenodd;stroke-linejoin:round;stroke-miterlimit:2;">
    <g transform="matrix(1,0,0,1,-8238,-5520)">
        <g transform="matrix(0.622121,0,0,0.417008,8066.43,2758.66)">
            <g id="uw" transform="matrix(1,0,0,1,-744.043,-423.191)">
                <g transform="matrix(0.597713,0,0,0.597713,503.913,2944.13)">
                    <g transform="matrix(6.69752,0,0,9.9918,1332.54,6429.2)">
                        <path d="M17.422,54.27C17.422,56.665 19.449,58.494 21.943,58.494C24.314,58.494 26.662,56.741 26.662,54.27L26.662,44.858L27.896,43.599L24.092,43.599L25.351,44.858L25.351,54.27C25.351,55.95 24.017,57.284 22.337,57.284C20.634,57.284 19.127,55.975 19.127,54.27L19.127,44.858L20.386,43.599L16.163,43.599L17.422,44.858L17.422,54.27ZM34.442,56.913L34.442,45.995L42.296,58.199L42.766,58.199L42.766,44.858L44.025,43.599L40.222,43.599L41.481,44.858L41.481,54.122L34.912,43.599L31.898,43.599L33.132,44.858L33.132,56.913L31.898,58.172L35.703,58.172L34.442,56.913ZM48.621,43.599L49.781,44.759L49.781,57.012L48.621,58.172L52.546,58.172L51.386,57.012L51.386,44.759L52.546,43.599L48.621,43.599ZM60.55,43.599L56.425,43.599L57.611,44.759L61.712,58.172L62.453,58.172L66.677,44.759L67.863,43.599L64.355,43.599L65.492,44.735L62.404,54.813L59.415,44.735L60.55,43.599ZM80.064,58.172L80.064,55.504L78.508,57.085L74.086,57.085L74.086,50.959L77.372,50.959L78.533,52.121L78.533,48.712L77.372,49.873L74.086,49.873L74.086,44.686L78.508,44.686L80.064,46.242L80.064,43.599L71.345,43.599L72.481,44.759L72.481,57.012L71.345,58.172L80.064,58.172ZM87.228,57.012L87.228,51.379L89.425,51.379L92.959,58.172L95.379,58.172L94.243,57.012L90.983,51.034C92.613,50.54 93.725,49.008 93.725,47.625C93.725,45.155 91.427,43.599 89.005,43.599L84.486,43.599L85.622,44.759L85.622,57.012L84.486,58.172L88.388,58.172L87.228,57.012ZM87.228,44.686L89.005,44.686C90.563,44.686 91.797,46.02 91.797,47.6C91.797,49.107 90.538,50.292 89.005,50.292L87.228,50.292L87.228,44.686ZM106.569,54.122C106.569,52.689 105.902,51.799 105.21,51.331L102.246,49.181C101.184,48.416 100.641,47.427 100.641,46.686C100.641,45.155 101.95,44.612 102.74,44.612C103.16,44.612 103.457,44.785 103.678,44.785L104.963,46.168L106.322,44.142L103.433,43.599C103.234,43.549 103.111,43.525 102.74,43.525C100.195,43.525 99.035,45.699 99.035,47.107C99.035,48.217 99.603,49.478 100.912,50.441L103.9,52.59C104.716,53.159 104.938,53.998 104.938,54.714C104.938,55.95 104.173,57.284 102.518,57.284C102.123,57.284 101.777,57.208 101.505,57.085L100.121,55.456L98.861,57.728L101.654,58.271C101.654,58.271 102.123,58.371 102.518,58.371C104.271,58.371 106.569,56.888 106.569,54.122ZM111.41,43.599L112.57,44.759L112.57,57.012L111.41,58.172L115.337,58.172L114.177,57.012L114.177,44.759L115.337,43.599L111.41,43.599ZM125.242,57.012L125.242,44.686L128.009,44.686L129.565,46.242L129.565,43.599L119.314,43.599L119.314,46.242L120.896,44.686L123.637,44.686L123.637,57.012L122.5,58.172L126.403,58.172L125.242,57.012ZM133.542,44.759L137.223,51.405L137.223,57.012L136.063,58.172L139.989,58.172L138.828,57.012L138.828,51.405L142.582,44.785L143.793,43.599L140.187,43.599L141.323,44.735L138.26,50.195L135.345,44.735L136.482,43.599L132.356,43.599L133.542,44.759ZM155.662,48.973C155.13,48.973 154.29,49.218 153.451,49.71C152.038,50.55 150.503,52.454 150.503,55.32C150.503,56.752 151.179,58.35 153.082,58.35C153.982,58.35 155.273,57.756 156.133,56.979C157.484,55.749 158.282,53.641 158.282,51.819C158.282,50.12 157.382,48.973 155.662,48.973ZM152.16,54.828C152.16,51.799 153.696,50.161 154.33,49.894C154.515,49.813 154.803,49.731 155.007,49.731C156.03,49.731 156.624,50.508 156.624,52.085C156.665,54.746 155.273,57.163 154.413,57.449C154.249,57.511 153.982,57.592 153.778,57.592C152.633,57.592 152.16,56.365 152.16,54.828ZM161.361,49.464L160.807,49.997L160.869,50.202L162.568,50.202C162.302,52.044 162.056,53.641 161.667,56.22C161.115,60.049 160.643,61.401 160.255,61.728C160.132,61.851 159.927,61.912 159.743,61.912C159.497,61.912 159.109,61.728 158.842,61.605C158.596,61.483 158.391,61.625 158.269,61.748C158.105,61.933 157.92,62.219 157.92,62.445C157.92,62.854 158.453,63.059 158.801,63.059C159.189,63.059 160.172,62.731 161.053,61.647C161.749,60.786 162.691,58.8 163.489,54.173C163.633,53.313 163.797,52.454 164.145,50.202L166.232,49.997L166.683,49.464L164.267,49.464C164.881,45.677 165.393,44.531 166.273,44.531C166.888,44.531 167.398,44.776 167.85,45.206C167.993,45.349 168.219,45.349 168.423,45.185C168.587,45.042 168.833,44.714 168.833,44.428C168.853,44.019 168.301,43.568 167.604,43.568C166.417,43.568 165.168,44.265 164.308,45.289C163.509,46.25 162.977,47.806 162.691,49.464L161.361,49.464Z" style="fill:white;fill-rule:nonzero;"/>
                    </g>
                    <g transform="matrix(6.69752,0,0,9.9918,1332.54,6429.2)">
                        <path d="M8.101,88.569L12.583,74.393L16.931,88.569L17.927,88.569L23.605,70.541L25.199,68.981L20.484,68.981L22.011,70.508L17.861,84.054L13.843,70.508L15.371,68.981L9.826,68.981L11.387,70.541L11.786,71.835L8.034,84.054L4.017,70.508L5.544,68.981L0,68.981L1.593,70.541L7.104,88.569L8.101,88.569ZM27.574,87.041L29.002,82.892L35.475,82.892L36.836,87.041L35.308,88.569L40.854,88.569L39.293,86.975L33.185,68.981L32.188,68.981L25.98,86.975L24.386,88.569L29.101,88.569L27.574,87.041ZM32.288,73.33L34.978,81.43L29.5,81.43L32.288,73.33ZM53.706,83.124C53.706,81.199 52.808,80.003 51.879,79.372L47.895,76.484C46.468,75.456 45.737,74.126 45.737,73.131C45.737,71.073 47.497,70.341 48.559,70.341C49.124,70.341 49.522,70.575 49.821,70.575L51.546,72.434L53.373,69.711L49.488,68.981C49.223,68.915 49.058,68.881 48.559,68.881C45.139,68.881 43.58,71.803 43.58,73.695C43.58,75.189 44.342,76.882 46.102,78.177L50.12,81.066C51.215,81.829 51.514,82.958 51.514,83.921C51.514,85.581 50.485,87.374 48.26,87.374C47.729,87.374 47.265,87.274 46.899,87.108L45.04,84.917L43.347,87.971L47.099,88.702C47.099,88.702 47.729,88.834 48.26,88.834C50.617,88.834 53.706,86.843 53.706,83.124ZM62.038,78.742L70.271,78.742L70.271,87.008L68.711,88.569L73.99,88.569L72.429,87.008L72.429,70.541L73.99,68.981L68.711,68.981L70.271,70.541L70.271,77.282L62.038,77.282L62.038,70.541L63.598,68.981L58.353,68.981L59.88,70.541L59.88,87.008L58.353,88.569L63.598,88.569L62.038,87.008L62.038,78.742ZM93.338,86.875L93.338,72.202L103.757,88.561L104.527,88.566L104.528,70.674L106.221,68.981L101.108,68.981L102.801,70.674L102.801,83.124L93.969,68.981L89.918,68.981L91.578,70.674L91.578,86.875L89.918,88.569L95.032,88.569L93.338,86.875ZM121.306,79.671L121.306,85.98C120.843,86.445 119.912,87.374 118.087,87.374C113.737,87.374 111.546,82.992 111.546,78.776C111.546,74.526 114.301,70.176 118.087,70.176C119.082,70.176 119.812,70.409 120.476,71.106L122.635,73.23L122.635,69.844C121.473,69.247 120.311,68.715 118.087,68.715C112.741,68.715 108.988,73.497 108.988,78.776C108.988,83.955 112.741,88.834 118.087,88.834C121.107,88.834 122.401,88.104 123.464,87.407L123.464,79.671L124.991,78.111L119.746,78.111L121.306,79.671ZM135.589,87.008L135.589,70.442L139.308,70.442L141.399,72.534L141.399,68.981L127.62,68.981L127.62,72.534L129.746,70.442L133.431,70.442L133.431,87.008L131.903,88.569L137.149,88.569L135.589,87.008ZM143.37,78.776C143.37,83.754 146.192,89 151.205,89C156.251,89 159.074,83.754 159.074,78.776C159.074,73.794 156.251,68.549 151.205,68.549C146.192,68.549 143.37,73.794 143.37,78.776ZM151.205,87.506C147.289,87.506 145.927,82.825 145.927,78.776C145.927,74.724 147.289,70.042 151.205,70.042C155.156,70.042 156.518,74.724 156.518,78.776C156.518,82.825 155.156,87.506 151.205,87.506ZM166.118,86.875L166.118,72.202L176.483,88.58L177.307,88.58L177.307,70.674L179,68.981L173.887,68.981L175.58,70.674L175.58,83.124L166.75,68.981L162.698,68.981L164.359,70.674L164.359,86.875L162.698,88.569L167.813,88.569L166.118,86.875Z" style="fill:white;fill-rule:nonzero;"/>
                    </g>
                    <g transform="matrix(6.69752,0,0,9.9918,1332.54,6429.2)">
                        <path d="M79.274,68.981L80.835,70.541L80.835,87.008L79.274,88.569L84.552,88.569L82.992,87.008L82.992,70.541L84.552,68.981L79.274,68.981Z" style="fill:white;fill-rule:nonzero;"/>
                    </g>
                </g>
                <g transform="matrix(6.69752,0,0,9.9918,565.383,7038.72)">
                    <path d="M67.856,0.817L67.856,5.788L71.005,5.788L76.534,27.998L84.287,27.998L87.973,14.099L91.505,27.998L99.261,27.998L105.096,5.788L108.091,5.788L108.091,0.817L97.418,0.817L97.418,5.788L100.949,5.788L97.11,20.243L92.349,0.817L87.435,0.817L82.214,20.396L78.453,5.788L82.292,5.788L82.292,0.817L67.856,0.817Z" style="fill:white;fill-rule:nonzero;"/>
                </g>
            </g>
        </g>
    </g>
</svg>
